HIERARCHY
ROOT Hips
{
	OFFSET 0.000000 0.000000 0.000000
	CHANNELS 6 Xposition Yposition Zposition Zrotation Yrotation Xrotation 
	JOINT LHipJoint
	{
		OFFSET 0.000000 0.000000 0.000000
		CHANNELS 3 Zrotation Yrotation Xrotation
		JOINT LeftUpLeg
		{
			OFFSET 1.363060 -1.794630 0.839290
			CHANNELS 3 Zrotation Yrotation Xrotation
			JOINT LeftLeg
			{
				OFFSET 2.448110 -6.726130 0.000000
				CHANNELS 3 Zrotation Yrotation Xrotation
				JOINT LeftFoot
				{
					OFFSET 2.562200 -7.039590 0.000000
					CHANNELS 3 Zrotation Yrotation Xrotation
					JOINT LeftToeBase
					{
						OFFSET 0.157640 -0.433110 2.322550
						CHANNELS 3 Zrotation Yrotation Xrotation
						End Site
						{
							OFFSET 0.000000 0.000000 0.000000
						}
					}
				}
			}
		}
	}
	JOINT RHipJoint
	{
		OFFSET 0.000000 0.000000 0.000000
		CHANNELS 3 Zrotation Yrotation Xrotation
		JOINT RightUpLeg
		{
			OFFSET -1.305520 -1.794630 0.839290
			CHANNELS 3 Zrotation Yrotation Xrotation
			JOINT RightLeg
			{
				OFFSET -2.542530 -6.985550 0.000000
				CHANNELS 3 Zrotation Yrotation Xrotation
				JOINT RightFoot
				{
					OFFSET -2.568260 -7.056230 0.000000
					CHANNELS 3 Zrotation Yrotation Xrotation
					JOINT RightToeBase
					{
						OFFSET -0.164730 -0.452590 2.363150
						CHANNELS 3 Zrotation Yrotation Xrotation
						End Site
						{
							OFFSET 0.000000 0.000000 0.000000
						}
					}
				}
			}
		}
	}
	JOINT LowerBack
	{
		OFFSET 0.000000 0.000000 0.000000
		CHANNELS 3 Zrotation Yrotation Xrotation
		JOINT Spine
		{
			OFFSET 0.028270 2.035590 -0.193380
			CHANNELS 3 Zrotation Yrotation Xrotation
			JOINT Spine1
			{
				OFFSET 0.056720 2.048850 -0.042750
				CHANNELS 3 Zrotation Yrotation Xrotation
				JOINT Neck
				{
					OFFSET 0.000000 0.000000 0.000000
					CHANNELS 3 Zrotation Yrotation Xrotation
					JOINT Neck1
					{
						OFFSET -0.054170 1.746240 0.172020
						CHANNELS 3 Zrotation Yrotation Xrotation
						JOINT Head
						{
							OFFSET 0.104070 1.761360 -0.123970
							CHANNELS 3 Zrotation Yrotation Xrotation
							End Site
							{
								OFFSET 0.000000 0.000000 0.000000
							}
						}
					}
				}
				JOINT LeftShoulder
				{
					OFFSET 0.000000 0.000000 0.000000
					CHANNELS 3 Zrotation Yrotation Xrotation
					JOINT LeftArm
					{
						OFFSET 3.362410 1.200890 -0.311210
						CHANNELS 3 Zrotation Yrotation Xrotation
						JOINT LeftForeArm
						{
							OFFSET 4.983000 -0.000000 -0.000000
							CHANNELS 3 Zrotation Yrotation Xrotation
							JOINT LeftHand
							{
								OFFSET 3.483560 -0.000000 -0.000000
								CHANNELS 3 Zrotation Yrotation Xrotation
								JOINT LeftFingerBase
								{
									OFFSET 0.000000 0.000000 0.000000
									CHANNELS 3 Zrotation Yrotation Xrotation
									JOINT LeftHandIndex1
									{
										OFFSET 0.715260 -0.000000 -0.000000
										CHANNELS 3 Zrotation Yrotation Xrotation
										End Site
										{
											OFFSET 0.000000 0.000000 0.000000
										}
									}
								}
								JOINT LThumb
								{
									OFFSET 0.000000 0.000000 0.000000
									CHANNELS 3 Zrotation Yrotation Xrotation
									End Site
									{
										OFFSET 0.000000 0.000000 0.000000
									}
								}
							}
						}
					}
				}
				JOINT RightShoulder
				{
					OFFSET 0.000000 0.000000 0.000000
					CHANNELS 3 Zrotation Yrotation Xrotation
					JOINT RightArm
					{
						OFFSET -3.136600 1.374050 -0.404650
						CHANNELS 3 Zrotation Yrotation Xrotation
						JOINT RightForeArm
						{
							OFFSET -5.241900 -0.000000 -0.000000
							CHANNELS 3 Zrotation Yrotation Xrotation
							JOINT RightHand
							{
								OFFSET -3.444170 -0.000000 -0.000000
								CHANNELS 3 Zrotation Yrotation Xrotation
								JOINT RightFingerBase
								{
									OFFSET 0.000000 0.000000 0.000000
									CHANNELS 3 Zrotation Yrotation Xrotation
									JOINT RightHandIndex1
									{
										OFFSET -0.622530 -0.000000 -0.000000
										CHANNELS 3 Zrotation Yrotation Xrotation
										End Site
										{
											OFFSET 0.000000 0.000000 0.000000
										}
									}
								}
								JOINT RThumb
								{
									OFFSET 0.000000 0.000000 0.000000
									CHANNELS 3 Zrotation Yrotation Xrotation
									End Site
									{
										OFFSET 0.000000 0.000000 0.000000
									}
								}
							}
						}
					}
				}
			}
		}
	}
}
MOTION
Frames: 6
Frame Time: 0.008333
10.507013 17.837296 50.133552 -178.814866 1.990473 178.753361 -1.017870 3.110835 2.317299 -16.141943 -16.728568 -4.768287 -2.204115 8.719163 24.914040 -4.679845 14.482204 -6.191227 0.840400 -5.847800 -16.343400 -2.731151 -3.312702 0.989898 22.606303 15.430431 -3.183686 1.719952 -8.630596 26.611151 5.228109 -18.819450 -14.566232 -0.161200 2.587100 -7.131200 0.832194 0.180236 3.560647 2.861444 0.198004 4.237232 -2.911325 0.221992 -9.829614 -7.398386 -1.069343 -14.107269 12.212952 -1.714408 7.275803 2.105900 -0.635100 3.312400 -1.917593 -10.914349 1.570138 -89.583845 13.576108 32.946074 23.729374 -23.336653 -6.464192 1.438356 1.216036 13.951103 13.544518 -31.341337 -6.883000 -7.125000 0.000000 0.000000 -10.957700 -3.172200 11.759600 0.450095 10.585514 2.512953 85.372744 -6.156493 49.362078 -21.306118 24.444259 -6.375037 1.273687 0.276341 24.475836 -4.750631 -56.655475 4.875200 7.125000 0.000000 0.000000 84.420600 -74.157700 -67.803200 
10.507368 17.839895 50.140642 -178.981278 2.229576 178.899506 -1.049025 3.072912 2.290036 -16.277809 -16.699511 -4.860260 -2.231145 8.696983 24.826958 -4.737253 14.622677 -6.293228 0.843700 -5.858900 -16.375500 -2.728849 -3.281034 0.967373 22.318790 15.389232 -3.532444 1.686069 -8.690672 26.724162 5.145556 -18.513285 -14.288030 -0.161600 2.589800 -7.138800 0.756002 0.307585 3.531772 2.725177 0.361697 4.111944 -2.925761 0.307408 -9.844150 -7.487146 -1.034544 -13.842635 12.409020 -1.710872 6.991534 2.181900 -0.649900 3.175100 -1.928988 -10.945993 1.571987 -89.632167 13.448635 32.892616 23.555577 -23.138045 -6.378056 1.435026 1.229608 14.302829 13.941198 -31.265989 -7.106500 -7.125000 0.000000 0.000000 -10.723500 -3.186000 11.501800 0.474888 10.562648 2.506880 85.311512 -6.154372 49.694241 -21.021443 24.086393 -6.226686 1.303256 0.225689 25.149677 -6.783102 -55.923379 6.566400 7.125000 0.000000 0.000000 81.206900 -74.840200 -65.378000 
10.506659 17.842968 50.146906 -178.914370 1.975016 178.905779 -1.052107 3.074006 2.267537 -16.202928 -16.913294 -4.841869 -2.228782 8.703279 24.837345 -4.714803 14.567633 -6.292262 0.844000 -5.859700 -16.377900 -2.729114 -3.275627 0.967301 22.375670 15.207462 -3.599150 1.686524 -8.694411 26.738368 5.128386 -18.491613 -14.374600 -0.145100 2.454700 -6.764000 0.918034 0.246559 3.642214 2.688944 0.297186 4.043653 -3.011389 0.263680 -9.919432 -7.363457 -1.001506 -13.680138 12.337621 -1.695706 6.785490 2.131300 -0.658500 3.069100 -1.924556 -10.954205 1.574099 -89.577138 13.373270 32.817944 23.603268 -23.210571 -6.396796 1.506509 1.167340 13.684852 11.832447 -31.327362 -5.862600 -7.125000 0.000000 0.000000 -11.948700 -2.835000 12.801200 0.483897 10.551861 2.506852 85.285994 -6.200911 49.911910 -20.829441 23.855726 -6.144089 1.312411 0.202079 25.772769 -7.248755 -55.880384 6.960900 7.125000 0.000000 0.000000 80.906000 -75.005700 -65.269300 
10.506068 17.843913 50.153523 -178.735291 1.867050 178.919918 -1.043915 3.078652 2.257398 -16.008953 -16.985799 -4.867654 -2.228369 8.693414 24.800049 -4.727311 14.577608 -6.156494 0.886500 -6.001800 -16.789600 -2.733020 -3.263204 0.951855 22.575812 15.159640 -3.624665 1.683485 -8.715857 26.792595 5.099620 -18.462755 -14.491087 -0.130300 2.326600 -6.409200 1.186809 0.245671 3.802812 2.728426 0.326138 3.918644 -3.157559 0.255407 -10.035718 -7.203989 -0.970552 -13.505195 12.100597 -1.726910 6.627330 2.013700 -0.715100 2.973700 -1.926862 -10.943694 1.582041 -89.526896 13.471257 33.009272 23.517464 -23.114392 -6.358622 1.498570 1.178968 14.324651 12.440858 -31.239168 -6.208400 -7.125000 0.000000 0.000000 -11.591300 -2.870000 12.408700 0.486537 10.536394 2.511582 85.263930 -6.354982 50.034578 -20.700361 23.700949 -6.089446 1.314775 0.186932 26.387256 -6.970173 -55.894315 6.729600 7.125000 0.000000 0.000000 81.021600 -74.907800 -65.271900 
10.508786 17.845804 50.156596 -178.756924 1.884852 179.036873 -1.052185 3.055377 2.219730 -16.013227 -17.014394 -4.955161 -2.229738 8.703643 24.793588 -4.876776 14.915423 -6.141440 0.944700 -6.190300 -17.337500 -2.730279 -3.244702 0.932011 22.526760 15.212928 -3.736176 1.688010 -8.722610 26.776827 5.094346 -18.435384 -14.446283 -0.126800 2.295600 -6.323200 1.241453 0.315418 3.890112 2.686158 0.431606 3.670152 -3.213768 0.299856 -10.143464 -7.274024 -1.016233 -13.284866 12.071944 -1.803028 6.526559 2.008700 -0.763900 2.903200 -1.935126 -10.945457 1.591771 -89.527232 13.493826 32.983950 23.479976 -23.081293 -6.341734 1.535586 1.151454 14.452864 11.650852 -31.260089 -5.745100 -7.125000 0.000000 0.000000 -12.051200 -2.746900 12.898200 0.506269 10.517033 2.514093 85.260718 -6.588105 50.066752 -20.493750 23.429984 -5.965092 1.334250 0.133708 27.215977 -8.125579 -54.934144 7.635300 7.125000 0.000000 0.000000 76.999700 -75.225600 -61.707200 
10.511386 17.849467 50.160141 -178.886209 1.844346 179.192201 -1.072444 3.023742 2.160642 -16.127613 -17.157392 -5.019094 -2.236665 8.719738 24.793364 -5.051127 15.323097 -6.235093 0.981900 -6.307500 -17.679200 -2.723417 -3.223522 0.910565 22.340908 15.226989 -3.916403 1.693281 -8.726649 26.740939 5.131933 -18.500940 -14.363829 -0.130800 2.330800 -6.420900 1.175380 0.377679 4.053333 2.585637 0.522010 3.316135 -3.209991 0.344254 -10.323860 -7.341122 -1.074036 -13.087904 12.088183 -1.897728 6.472766 2.021200 -0.817400 2.852000 -1.943499 -10.939272 1.607630 -89.507216 13.473988 32.976494 23.436552 -23.049718 -6.333717 1.564185 1.138997 14.622924 11.176432 -31.527192 -5.505200 -7.125000 0.000000 0.000000 -12.348000 -2.932200 13.269200 0.533886 10.501343 2.521459 85.304676 -6.852972 50.040945 -20.288666 23.165610 -5.844399 1.349022 0.088778 27.815704 -9.083585 -54.031207 8.358200 7.125000 0.000000 0.000000 73.143300 -75.428600 -58.252700 
